<svg width="18" height="19" viewBox="0 0 18 19" fill="none" xmlns="http://www.w3.org/2000/svg">
<g clip-path="url(#clip0_0_22)">
<path d="M14.625 3.04834H12.375V1.92334H11.25V3.04834H6.75V1.92334H5.625V3.04834H3.375C2.75625 3.04834 2.25 3.55459 2.25 4.17334V15.4233C2.25 16.0421 2.75625 16.5483 3.375 16.5483H14.625C15.2437 16.5483 15.75 16.0421 15.75 15.4233V4.17334C15.75 3.55459 15.2437 3.04834 14.625 3.04834ZM14.625 15.4233H3.375V7.54834H14.625V15.4233ZM14.625 6.42334H3.375V4.17334H5.625V5.29834H6.75V4.17334H11.25V5.29834H12.375V4.17334H14.625V6.42334Z" fill="white"/>
</g>
<defs>
<clipPath id="clip0_0_22">
<rect width="18" height="18" fill="white" transform="translate(0 0.79834)"/>
</clipPath>
</defs>
</svg>
