<svg width="25" height="25" viewBox="0 0 25 25" fill="none" xmlns="http://www.w3.org/2000/svg">
<g id="email (2) 1" clip-path="url(#clip0_0_35)">
<path id="Vector" d="M21.1875 5.47736H3.1875C2.78968 5.47736 2.40814 5.63539 2.12684 5.9167C1.84554 6.198 1.6875 6.57953 1.6875 6.97736V18.9774C1.6875 19.3752 1.84554 19.7567 2.12684 20.038C2.40814 20.3193 2.78968 20.4774 3.1875 20.4774H21.1875C21.5853 20.4774 21.9669 20.3193 22.2482 20.038C22.5295 19.7567 22.6875 19.3752 22.6875 18.9774V6.97736C22.6875 6.57953 22.5295 6.198 22.2482 5.9167C21.9669 5.63539 21.5853 5.47736 21.1875 5.47736ZM19.5375 6.97736L12.1875 12.0624L4.8375 6.97736H19.5375ZM3.1875 18.9774V7.65986L11.76 13.5924C11.8855 13.6795 12.0347 13.7261 12.1875 13.7261C12.3403 13.7261 12.4895 13.6795 12.615 13.5924L21.1875 7.65986V18.9774H3.1875Z" fill="#333333"/>
</g>
<defs>
<clipPath id="clip0_0_35">
<rect width="24" height="24" fill="white" transform="translate(0.1875 0.977356)"/>
</clipPath>
</defs>
</svg>
