<svg width="24" height="25" viewBox="0 0 24 25" fill="none" xmlns="http://www.w3.org/2000/svg">
<g clip-path="url(#clip0_0_43)">
<path d="M20.0025 3.28571H3.9975C3.73355 3.28767 3.48097 3.39339 3.29433 3.58004C3.10769 3.76668 3.00196 4.01926 3 4.28321V20.2882C3.00196 20.5522 3.10769 20.8047 3.29433 20.9914C3.48097 21.178 3.73355 21.2837 3.9975 21.2857H12.615V14.3257H10.275V11.6032H12.615V9.60071C12.615 7.27571 14.0325 6.00821 16.1175 6.00821C16.815 6.00821 17.5125 6.00821 18.21 6.11321V8.53571H16.7775C15.645 8.53571 15.4275 9.07571 15.4275 9.86321V11.5957H18.1275L17.775 14.3182H15.4275V21.2857H20.0025C20.2664 21.2837 20.519 21.178 20.7057 20.9914C20.8923 20.8047 20.998 20.5522 21 20.2882V4.28321C20.998 4.01926 20.8923 3.76668 20.7057 3.58004C20.519 3.39339 20.2664 3.28767 20.0025 3.28571Z" fill="black"/>
</g>
<defs>
<clipPath id="clip0_0_43">
<rect width="24" height="24" fill="white" transform="translate(0 0.285706)"/>
</clipPath>
</defs>
</svg>
