<svg width="177" height="44" viewBox="0 0 177 44" fill="none" xmlns="http://www.w3.org/2000/svg">
<g clip-path="url(#clip0_84_6)">
<mask id="mask0_84_6" style="mask-type:luminance" maskUnits="userSpaceOnUse" x="0" y="0" width="39" height="40">
<path d="M0 0.000264823H38.7977V39.861H0V0.000264823Z" fill="white"/>
</mask>
<g mask="url(#mask0_84_6)">
<path d="M26.8724 37.4946H12.0732C6.95472 37.4946 2.80542 33.3453 2.80542 28.2269V13.4277C2.80542 8.30923 6.95472 4.15993 12.0732 4.15993H26.8724C31.9908 4.15993 36.1401 8.30923 36.1401 13.4277V28.2269C36.1401 33.3453 31.9908 37.4946 26.8724 37.4946Z" fill="white"/>
<path d="M29.574 30.7502C27.6051 25.3774 22.4584 22.0397 16.1425 22.0397H10.407C9.87908 22.0397 9.45117 22.4676 9.45117 22.9955V31.0793C9.45117 31.6073 9.87908 32.0352 10.407 32.0352H16.1425C16.6705 32.0352 17.0983 31.6073 17.0983 31.0793V25.9264C17.0983 25.3984 16.6705 24.9705 16.1425 24.9705C15.6145 24.9705 15.1866 25.3984 15.1866 25.9264V30.1234H11.3629V23.9514H16.1425C21.1033 23.9514 25.2212 26.2827 27.2136 30.1232H21.0109C20.4829 30.1232 20.055 30.5512 20.055 31.0791C20.055 31.6071 20.4829 32.035 21.0109 32.035H28.6765C28.9888 32.035 29.2813 31.8826 29.4602 31.6265C29.639 31.3705 29.6815 31.0434 29.574 30.7502Z" fill="#0057FF"/>
<path d="M21.01 32.035C20.482 32.035 20.0541 31.6071 20.0541 31.0791V10.841C20.0541 10.313 20.482 9.88511 21.01 9.88511C21.538 9.88511 21.9659 10.313 21.9659 10.841V31.0791C21.9659 31.6071 21.538 32.035 21.01 32.035Z" fill="#0057FF"/>
<path d="M29.4602 10.2935C29.2813 10.0375 28.9888 9.88504 28.6765 9.88504H21.0108C20.4829 9.88504 20.055 10.3129 20.055 10.8409C20.055 11.3689 20.4829 11.7968 21.0108 11.7968H27.2136C25.2212 15.6373 21.1033 17.9687 16.1425 17.9687H11.3629V11.7966H15.1866V15.9937C15.1866 16.5217 15.6144 16.9495 16.1425 16.9495C16.6704 16.9495 17.0983 16.5217 17.0983 15.9937V10.8408C17.0983 10.3128 16.6704 9.8849 16.1425 9.8849H10.407C9.87908 9.8849 9.45117 10.3128 9.45117 10.8408V18.9245C9.45117 19.4525 9.87908 19.8804 10.407 19.8804H16.1425C22.4584 19.8804 27.6051 16.5427 29.574 11.1698C29.6815 10.8766 29.639 10.5495 29.4602 10.2935Z" fill="#0057FF"/>
</g>
</g>
<path d="M58.6221 30.7953H54.5941L49.3433 23.5784L47.1135 26.2877V30.7953H43.8527V13.0768H47.1135V21.7802L54.1625 13.0768H58.1186L51.5011 21.1808L58.6221 30.7953ZM58.3187 24.2737C58.3187 22.3556 58.966 20.7492 60.2608 19.4305C61.5795 18.1118 63.2338 17.4405 65.2718 17.4405C67.3098 17.4405 68.9642 18.1118 70.2589 19.4305C71.5776 20.7492 72.225 22.3556 72.225 24.2737C72.225 26.2158 71.5776 27.8462 70.2589 29.1649C68.9642 30.4836 67.3098 31.131 65.2718 31.131C63.2338 31.131 61.5795 30.4836 60.2608 29.1649C58.966 27.8462 58.3187 26.2158 58.3187 24.2737ZM69.0841 24.2737C69.0841 23.1948 68.7244 22.2597 67.9811 21.4925C67.2379 20.7252 66.3508 20.3416 65.2718 20.3416C64.1929 20.3416 63.3058 20.7252 62.5625 21.4925C61.8192 22.2597 61.4596 23.1948 61.4596 24.2737C61.4596 25.3766 61.8192 26.3117 62.5625 27.079C63.3058 27.8462 64.1929 28.2298 65.2718 28.2298C66.3508 28.2298 67.2379 27.8462 67.9811 27.079C68.7244 26.3117 69.0841 25.3766 69.0841 24.2737ZM84.5331 19.4305V12.5733H87.65V30.7953H84.605V29.093C83.5261 30.4356 82.1354 31.107 80.4571 31.107C78.6109 31.107 77.0524 30.4596 75.8297 29.1649C74.6069 27.8462 73.9835 26.2158 73.9835 24.2737C73.9835 22.3556 74.6069 20.7492 75.8297 19.4305C77.0764 18.1118 78.6109 17.4644 80.4331 17.4644C82.0875 17.4644 83.4541 18.1118 84.5331 19.4305ZM80.8887 28.2538C82.0156 28.2538 82.9506 27.8702 83.6459 27.1029C84.3413 26.3357 84.7009 25.4006 84.7009 24.2737C84.7009 23.1708 84.3413 22.2357 83.622 21.4685C82.9267 20.7012 82.0156 20.3176 80.8887 20.3176C79.7618 20.3176 78.8507 20.7012 78.1554 21.4685C77.46 22.2357 77.1004 23.1708 77.1004 24.2737C77.1004 25.4006 77.46 26.3357 78.1554 27.1029C78.8507 27.8702 79.7618 28.2538 80.8887 28.2538ZM103.35 24.01C103.35 24.3696 103.326 24.8252 103.254 25.4006H93.3283C93.7359 27.1988 95.0785 28.3977 97.3083 28.3977C98.8908 28.3977 100.329 27.9421 101.6 27.055L102.847 29.2848C101.24 30.4836 99.3463 31.083 97.1885 31.083C92.2973 31.083 90.1394 27.7263 90.1394 24.2737C90.1394 22.3077 90.7628 20.6773 92.0096 19.4065C93.2803 18.1118 94.9107 17.4644 96.9008 17.4644C98.7949 17.4644 100.329 18.0638 101.528 19.2387C102.751 20.4135 103.35 21.996 103.35 24.01ZM96.9008 20.0779C95.0785 20.0779 93.7359 21.2047 93.3283 23.0269H100.281C100.018 21.2047 98.699 20.0779 96.9008 20.0779ZM114.381 31.059C111.719 31.059 109.513 30.1959 107.763 28.4936C106.037 26.7673 105.174 24.5854 105.174 21.948C105.174 19.2866 106.085 17.0808 107.883 15.3545C109.681 13.6282 111.911 12.7651 114.524 12.7651C117.402 12.7651 120.111 13.9879 121.717 15.7381L119.536 18.0399C118.169 16.6253 116.491 15.9299 114.524 15.9299C112.822 15.9299 111.384 16.5054 110.233 17.6323C109.106 18.7592 108.53 20.1977 108.53 21.924C108.53 23.6264 109.082 25.041 110.209 26.1918C111.336 27.3427 112.774 27.9181 114.477 27.9181C116.371 27.9181 118.265 27.1029 119.44 25.8801V23.1948H114.309V20.3176H122.461V27.4866C120.207 29.8602 117.522 31.059 114.381 31.059ZM128.301 12.5733V30.7953H125.184V12.5733H128.301ZM130.763 24.2737C130.763 22.3556 131.41 20.7492 132.705 19.4305C134.024 18.1118 135.678 17.4405 137.716 17.4405C139.754 17.4405 141.408 18.1118 142.703 19.4305C144.022 20.7492 144.669 22.3556 144.669 24.2737C144.669 26.2158 144.022 27.8462 142.703 29.1649C141.408 30.4836 139.754 31.131 137.716 31.131C135.678 31.131 134.024 30.4836 132.705 29.1649C131.41 27.8462 130.763 26.2158 130.763 24.2737ZM141.528 24.2737C141.528 23.1948 141.169 22.2597 140.425 21.4925C139.682 20.7252 138.795 20.3416 137.716 20.3416C136.637 20.3416 135.75 20.7252 135.007 21.4925C134.263 22.2597 133.904 23.1948 133.904 24.2737C133.904 25.3766 134.263 26.3117 135.007 27.079C135.75 27.8462 136.637 28.2298 137.716 28.2298C138.795 28.2298 139.682 27.8462 140.425 27.079C141.169 26.3117 141.528 25.3766 141.528 24.2737ZM154.388 17.4644C156.234 17.4644 157.768 18.1118 158.991 19.4305C160.238 20.7492 160.861 22.3556 160.861 24.2977C160.861 26.2398 160.238 27.8462 158.991 29.1649C157.768 30.4596 156.21 31.107 154.364 31.107C152.685 31.107 151.295 30.4356 150.192 29.069V30.7953H147.123V12.5733H150.24V19.4545C151.343 18.1358 152.733 17.4644 154.388 17.4644ZM157.673 24.2737C157.673 23.1708 157.313 22.2357 156.618 21.4925C155.922 20.7252 155.035 20.3416 153.908 20.3416C152.781 20.3416 151.87 20.7252 151.175 21.4925C150.48 22.2357 150.12 23.1708 150.12 24.2737C150.12 25.4006 150.48 26.3357 151.175 27.1029C151.87 27.8462 152.781 28.2298 153.908 28.2298C155.035 28.2298 155.922 27.8462 156.618 27.1029C157.313 26.3357 157.673 25.4006 157.673 24.2737ZM175.841 24.01C175.841 24.3696 175.817 24.8252 175.746 25.4006H165.819C166.227 27.1988 167.57 28.3977 169.799 28.3977C171.382 28.3977 172.82 27.9421 174.091 27.055L175.338 29.2848C173.731 30.4836 171.837 31.083 169.679 31.083C164.788 31.083 162.63 27.7263 162.63 24.2737C162.63 22.3077 163.254 20.6773 164.501 19.4065C165.771 18.1118 167.402 17.4644 169.392 17.4644C171.286 17.4644 172.82 18.0638 174.019 19.2387C175.242 20.4135 175.841 21.996 175.841 24.01ZM169.392 20.0779C167.57 20.0779 166.227 21.2047 165.819 23.0269H172.772C172.509 21.2047 171.19 20.0779 169.392 20.0779Z" fill="white"/>
<defs>
<clipPath id="clip0_84_6">
<rect width="38.7977" height="39.8607" fill="white"/>
</clipPath>
</defs>
</svg>
