<?xml version="1.0" standalone="no"?>
<!DOCTYPE svg PUBLIC "-//W3C//DTD SVG 20010904//EN"
 "http://www.w3.org/TR/2001/REC-SVG-20010904/DTD/svg10.dtd">
<svg version="1.0" xmlns="http://www.w3.org/2000/svg"
 width="1174.000000pt" height="292.000000pt" viewBox="0 0 1174.000000 292.000000"
 preserveAspectRatio="xMidYMid meet">

<g transform="translate(0.000000,292.000000) scale(0.100000,-0.100000)"
fill="#000000" stroke="none">
<path d="M700 2633 c-95 -16 -230 -81 -306 -148 -68 -59 -138 -163 -172 -255
l-27 -75 -3 -585 c-3 -655 -2 -666 65 -803 49 -98 162 -211 259 -260 137 -69
126 -68 802 -65 l607 3 67 27 c181 72 306 200 370 378 l23 65 3 599 c3 666 4
655 -65 796 -50 104 -161 214 -266 264 -134 65 -148 66 -772 64 -308 0 -571
-3 -585 -5z m417 -386 c16 -15 18 -41 21 -205 3 -204 -3 -229 -50 -246 -20 -7
-33 -5 -52 8 l-26 16 0 155 0 155 -125 0 -125 0 0 -201 0 -201 233 4 c144 3
252 10 285 18 l52 13 0 233 0 233 26 20 c25 20 39 21 285 21 144 0 269 -4 283
-10 47 -18 53 -51 21 -125 -79 -187 -244 -356 -429 -441 l-56 -25 0 -139 0
-139 73 -37 c188 -94 331 -243 408 -423 35 -81 35 -86 4 -116 l-24 -25 -266 0
c-262 0 -297 4 -317 34 -4 6 -8 115 -8 242 l0 231 -57 13 c-33 7 -156 15 -285
17 l-228 5 0 -206 0 -207 123 3 122 3 5 158 c5 173 7 177 67 177 57 0 65 -31
61 -247 -4 -242 18 -223 -258 -223 -190 0 -210 2 -231 19 l-24 19 0 297 0 297
24 19 c21 18 42 19 260 19 210 0 324 -8 397 -26 l24 -6 0 102 c0 95 -1 101
-19 95 -58 -18 -163 -25 -392 -25 -247 0 -257 1 -275 21 -17 19 -19 42 -22
288 -4 284 2 330 40 349 15 7 94 11 230 9 184 -2 209 -4 225 -20z"/>
<path d="M1460 1969 l0 -161 48 28 c113 66 202 150 266 252 l26 42 -170 0
-170 0 0 -161z"/>
<path d="M1460 1080 l0 -160 170 0 c94 0 170 2 170 5 0 10 -34 60 -82 121 -59
74 -215 194 -253 194 -3 0 -5 -72 -5 -160z"/>
<path d="M5610 1865 l0 -225 -54 44 c-76 61 -136 79 -250 74 -105 -5 -172 -30
-245 -94 -108 -94 -157 -220 -149 -383 4 -87 9 -108 40 -173 59 -123 152 -201
278 -234 128 -32 254 -3 338 79 l42 41 0 -57 0 -57 100 0 100 0 0 605 0 605
-100 0 -100 0 0 -225z m-135 -314 c103 -45 164 -181 135 -300 -27 -115 -108
-188 -217 -198 -163 -15 -279 95 -277 262 1 79 18 126 65 180 71 81 187 103
294 56z"/>
<path d="M8300 1485 l0 -605 105 0 105 0 0 605 0 605 -105 0 -105 0 0 -605z"/>
<path d="M9760 1485 l0 -605 100 0 100 0 0 56 0 57 46 -43 c83 -77 192 -105
316 -80 343 66 466 528 207 775 -86 82 -151 109 -272 113 -90 4 -101 2 -160
-26 -34 -16 -77 -43 -96 -60 -18 -18 -35 -32 -37 -32 -2 0 -4 101 -4 225 l0
225 -100 0 -100 0 0 -605z m555 66 c102 -46 161 -173 135 -294 -31 -152 -160
-233 -311 -197 -67 16 -148 92 -167 156 -40 136 12 279 121 333 55 27 164 29
222 2z"/>
<path d="M7500 2070 c-142 -18 -264 -83 -368 -194 -109 -117 -152 -232 -152
-408 0 -187 48 -307 169 -429 123 -122 250 -172 441 -172 179 0 319 52 464
172 l66 55 0 243 0 243 -270 0 -270 0 0 -95 0 -95 170 0 170 0 0 -95 0 -95
-42 -31 c-140 -103 -319 -126 -463 -58 -67 31 -150 116 -183 186 -25 53 -27
69 -27 173 1 103 3 121 27 172 109 236 440 298 653 123 l42 -34 74 75 74 75
-40 34 c-98 83 -219 136 -349 154 -84 12 -103 12 -186 1z"/>
<path d="M2910 1470 l0 -590 105 0 105 0 0 148 0 147 76 93 76 92 174 -240
175 -240 130 0 c71 0 129 3 129 6 0 3 -101 143 -225 309 -124 167 -227 310
-230 317 -3 7 92 132 210 277 118 144 215 265 215 267 0 2 -57 4 -127 4 l-128
0 -230 -285 c-126 -157 -233 -285 -237 -285 -5 0 -8 128 -8 285 l0 285 -105 0
-105 0 0 -590z"/>
<path d="M4240 1759 c-137 -23 -264 -118 -327 -245 -31 -65 -36 -85 -41 -169
-8 -167 46 -296 164 -389 76 -59 149 -86 254 -93 155 -10 275 33 372 135 63
66 91 116 113 199 68 259 -102 521 -365 562 -74 12 -94 12 -170 0z m188 -205
c163 -67 204 -300 76 -428 -129 -129 -337 -85 -409 87 -19 47 -19 157 0 205
21 49 80 110 130 133 50 23 151 25 203 3z"/>
<path d="M9040 1759 c-291 -49 -452 -378 -320 -653 33 -70 120 -161 188 -195
92 -47 237 -64 341 -40 127 29 242 122 302 244 33 68 34 72 34 195 0 120 -1
128 -32 192 -53 111 -149 200 -257 238 -67 23 -184 32 -256 19z m211 -217
c146 -76 180 -279 67 -407 -49 -57 -101 -79 -183 -79 -81 -1 -125 17 -178 71
-97 96 -102 255 -12 360 75 88 201 110 306 55z"/>
<path d="M6285 1746 c-192 -63 -305 -223 -305 -431 0 -211 116 -375 305 -431
74 -22 237 -24 315 -5 66 16 167 61 197 87 l22 19 -40 71 -40 72 -52 -29
c-138 -74 -310 -78 -409 -7 -28 19 -70 84 -83 126 l-6 22 332 0 332 0 -5 113
c-4 96 -8 121 -32 174 -35 77 -122 163 -203 201 -51 23 -72 27 -173 29 -75 2
-129 -2 -155 -11z m233 -172 c64 -26 110 -80 126 -146 l6 -28 -230 0 -231 0 7
23 c20 67 79 130 140 152 52 19 136 18 182 -1z"/>
<path d="M11085 1743 c-121 -44 -205 -118 -258 -231 -31 -65 -32 -72 -32 -197
0 -129 0 -131 36 -205 63 -131 158 -204 309 -236 87 -18 204 -14 290 12 71 21
190 81 190 95 0 7 -16 42 -36 79 l-37 67 -66 -34 c-206 -104 -435 -47 -476
120 l-7 27 331 0 331 0 0 83 c0 45 -5 102 -11 126 -27 117 -116 228 -226 279
-50 23 -73 27 -173 29 -91 3 -126 0 -165 -14z m278 -189 c43 -31 72 -72 87
-123 l9 -31 -230 0 c-181 0 -229 3 -229 13 0 7 15 37 33 67 25 42 44 61 87 83
50 26 62 28 128 24 60 -3 80 -9 115 -33z"/>
</g>
</svg>
