<svg width="24" height="25" viewBox="0 0 24 25" fill="none" xmlns="http://www.w3.org/2000/svg">
<g clip-path="url(#clip0_0_46)">
<path d="M16.8027 8.56143C17.3991 8.56143 17.8827 8.0779 17.8827 7.48143C17.8827 6.88496 17.3991 6.40143 16.8027 6.40143C16.2062 6.40143 15.7227 6.88496 15.7227 7.48143C15.7227 8.0779 16.2062 8.56143 16.8027 8.56143Z" fill="black"/>
<path d="M12.0006 7.66412C11.0865 7.66412 10.1929 7.93518 9.43291 8.44301C8.67288 8.95085 8.08051 9.67265 7.73071 10.5171C7.38091 11.3616 7.28938 12.2909 7.46771 13.1874C7.64604 14.0839 8.08621 14.9074 8.73256 15.5538C9.37891 16.2001 10.2024 16.6403 11.0989 16.8186C11.9954 16.9969 12.9247 16.9054 13.7692 16.5556C14.6137 16.2058 15.3355 15.6135 15.8433 14.8534C16.3512 14.0934 16.6222 13.1998 16.6222 12.2858C16.6222 11.06 16.1353 9.8845 15.2686 9.01777C14.4018 8.15105 13.2263 7.66412 12.0006 7.66412ZM12.0006 15.2858C11.4072 15.2858 10.8272 15.1098 10.3338 14.7802C9.8405 14.4505 9.45598 13.982 9.22892 13.4338C9.00186 12.8856 8.94245 12.2824 9.0582 11.7005C9.17396 11.1186 9.45968 10.584 9.87924 10.1645C10.2988 9.7449 10.8333 9.45917 11.4153 9.34342C11.9972 9.22766 12.6004 9.28707 13.1486 9.51413C13.6968 9.7412 14.1653 10.1257 14.495 10.6191C14.8246 11.1124 15.0006 11.6924 15.0006 12.2858C15.0006 13.0814 14.6845 13.8445 14.1219 14.4071C13.5593 14.9697 12.7962 15.2858 12.0006 15.2858Z" fill="black"/>
<path d="M12 4.90736C14.4031 4.90736 14.6878 4.91651 15.6368 4.95986C16.2075 4.96665 16.7728 5.07148 17.308 5.26976C17.6961 5.41952 18.0486 5.64886 18.3428 5.94303C18.6369 6.2372 18.8663 6.58968 19.016 6.97781C19.2143 7.51301 19.3191 8.07832 19.3259 8.64903C19.3692 9.59801 19.3784 9.88271 19.3784 12.2858C19.3784 14.6889 19.3693 14.9736 19.3259 15.9225C19.3191 16.4932 19.2143 17.0585 19.016 17.5938C18.8663 17.9819 18.6369 18.3344 18.3428 18.6285C18.0486 18.9227 17.6961 19.152 17.308 19.3018C16.7728 19.5001 16.2075 19.6049 15.6368 19.6117C14.6879 19.655 14.4033 19.6642 12 19.6642C9.5967 19.6642 9.31215 19.6551 8.36325 19.6117C7.79253 19.6049 7.22723 19.5001 6.69202 19.3018C6.3039 19.152 5.95142 18.9227 5.65725 18.6285C5.36308 18.3344 5.13374 17.9819 4.98397 17.5938C4.78569 17.0585 4.68087 16.4932 4.67408 15.9225C4.6308 14.9736 4.62157 14.6889 4.62157 12.2858C4.62157 9.88271 4.63073 9.59801 4.67408 8.64903C4.68087 8.07832 4.78569 7.51301 4.98397 6.97781C5.13373 6.58967 5.36307 6.23717 5.65724 5.94299C5.95141 5.64881 6.30389 5.41945 6.69202 5.26968C7.22723 5.0714 7.79253 4.96657 8.36325 4.95978C9.31222 4.91651 9.59693 4.90736 12 4.90736ZM12 3.28571C9.55575 3.28571 9.24922 3.29606 8.2893 3.33986C7.54279 3.35484 6.80422 3.4963 6.105 3.75821C5.50705 3.98944 4.96401 4.34306 4.51068 4.79638C4.05735 5.24971 3.70374 5.79276 3.4725 6.39071C3.21055 7.09004 3.06909 7.82874 3.05415 8.57538C3.01035 9.53493 3 9.84146 3 12.2857C3 14.73 3.01035 15.0365 3.05415 15.9964C3.0691 16.743 3.21056 17.4817 3.4725 18.1811C3.70374 18.779 4.05735 19.3221 4.51068 19.7754C4.96401 20.2287 5.50705 20.5823 6.105 20.8136C6.80434 21.0755 7.54304 21.217 8.28968 21.2319C9.24923 21.2754 9.55575 21.2857 12 21.2857C14.4443 21.2857 14.7508 21.2754 15.7107 21.2316C16.4573 21.2166 17.196 21.0751 17.8954 20.8132C18.4933 20.582 19.0364 20.2284 19.4897 19.775C19.943 19.3217 20.2966 18.7787 20.5279 18.1807C20.7898 17.4814 20.9313 16.7427 20.9462 15.996C20.9897 15.0365 21 14.73 21 12.2857C21 9.84146 20.9896 9.53493 20.9459 8.57501C20.9309 7.82849 20.7894 7.08993 20.5275 6.39071C20.2962 5.79282 19.9426 5.24985 19.4893 4.79659C19.0359 4.34333 18.4929 3.98977 17.895 3.75858C17.1957 3.49664 16.457 3.35518 15.7103 3.34023C14.7508 3.29606 14.4443 3.28571 12 3.28571Z" fill="black"/>
</g>
<defs>
<clipPath id="clip0_0_46">
<rect width="24" height="24" fill="white" transform="translate(0 0.285706)"/>
</clipPath>
</defs>
</svg>
