<svg width="24" height="25" viewBox="0 0 24 25" fill="none" xmlns="http://www.w3.org/2000/svg">
<g id="logo--linkedin 1" clip-path="url(#clip0_0_54)">
<path id="Vector" d="M19.65 3.28571H4.35C3.6 3.28571 3 3.88571 3 4.56071V19.9357C3 20.6107 3.6 21.2107 4.35 21.2107H19.65C20.4 21.2107 21 20.6107 21 19.9357V4.56071C21 3.88571 20.4 3.28571 19.65 3.28571ZM8.325 18.5857H5.7V10.0357H8.325V18.5857ZM7.05 8.83571C6.225 8.83571 5.475 8.16071 5.475 7.26071C5.475 6.36071 6.15 5.68571 7.05 5.68571C7.875 5.68571 8.625 6.36071 8.625 7.26071C8.625 8.16071 7.875 8.83571 7.05 8.83571ZM18.375 18.5107H15.75V14.3107C15.75 13.3357 15.75 11.9857 14.325 11.9857C12.9 11.9857 12.75 13.1107 12.75 14.1607V18.4357H10.125V10.0357H12.6V11.1607H12.675C13.05 10.4857 13.95 9.73571 15.225 9.73571C17.925 9.73571 18.45 11.5357 18.45 13.8607V18.5107H18.375Z" fill="black"/>
</g>
<defs>
<clipPath id="clip0_0_54">
<rect width="24" height="24" fill="white" transform="translate(0 0.285706)"/>
</clipPath>
</defs>
</svg>
