<svg width="24" height="25" viewBox="0 0 24 25" fill="none" xmlns="http://www.w3.org/2000/svg">
<g clip-path="url(#clip0_0_38)">
<path d="M18 10.7274H16.5C16.4993 10.1308 16.2621 9.5589 15.8403 9.13709C15.4185 8.71527 14.8465 8.47801 14.25 8.47736V6.97736C15.2442 6.97849 16.1974 7.37394 16.9004 8.07696C17.6034 8.77997 17.9989 9.73314 18 10.7274Z" fill="#333333"/>
<path d="M21 10.7274H19.5C19.4985 9.33544 18.9448 8.00099 17.9606 7.01676C16.9764 6.03253 15.6419 5.4789 14.25 5.47736V3.97736C16.0396 3.97934 17.7553 4.69114 19.0208 5.95658C20.2862 7.22202 20.998 8.93775 21 10.7274Z" fill="#333333"/>
<path d="M19.5 22.7274H19.3725C4.63497 21.8799 2.54247 9.44486 2.24997 5.64986C2.22732 5.35525 2.26291 5.05906 2.35472 4.77821C2.44653 4.49736 2.59276 4.23734 2.78506 4.013C2.97737 3.78867 3.21197 3.6044 3.47549 3.47073C3.739 3.33706 4.02626 3.25661 4.32087 3.23396C4.38027 3.22956 4.43997 3.22736 4.49997 3.22736H8.45247C8.75289 3.22707 9.04647 3.31699 9.2952 3.48548C9.54392 3.65397 9.73632 3.89326 9.84747 4.17236L10.9875 6.97736C11.0972 7.25002 11.1245 7.54892 11.0658 7.83692C11.0071 8.12493 10.8651 8.38936 10.6575 8.59736L9.05997 10.2099C9.30849 11.6284 9.98726 12.9361 11.0042 13.9557C12.0212 14.9754 13.3271 15.6576 14.745 15.9099L16.3725 14.2974C16.5836 14.092 16.8505 13.9533 17.1399 13.8986C17.4294 13.8439 17.7285 13.8757 18 13.9899L20.8275 15.1224C21.1024 15.237 21.3369 15.4309 21.5012 15.6794C21.6655 15.9278 21.7521 16.2195 21.75 16.5174V20.4774C21.75 21.0741 21.5129 21.6464 21.091 22.0683C20.669 22.4903 20.0967 22.7274 19.5 22.7274ZM4.49997 4.72736C4.40148 4.72704 4.30389 4.74613 4.21278 4.78353C4.12166 4.82093 4.0388 4.87591 3.96894 4.94533C3.89907 5.01475 3.84356 5.09725 3.80558 5.18813C3.7676 5.279 3.74789 5.37647 3.74757 5.47496C3.74757 5.49581 3.74837 5.51661 3.74997 5.53736C4.09497 9.97736 6.30747 20.4774 19.455 21.2274C19.5533 21.2333 19.6518 21.2198 19.7449 21.1876C19.838 21.1554 19.9238 21.1052 19.9975 21.0399C20.0712 20.9746 20.1313 20.8953 20.1744 20.8068C20.2175 20.7182 20.2427 20.622 20.2486 20.5237C20.2495 20.5083 20.25 20.4928 20.25 20.4774V16.5174L17.4225 15.3849L15.27 17.5224L14.91 17.4774C8.38497 16.6599 7.49997 10.1349 7.49997 10.0674L7.45497 9.70736L9.58497 7.55486L8.45997 4.72736H4.49997Z" fill="#333333"/>
</g>
<defs>
<clipPath id="clip0_0_38">
<rect width="24" height="24" fill="white" transform="translate(0 0.977356)"/>
</clipPath>
</defs>
</svg>
