<svg xmlns="http://www.w3.org/2000/svg" width="81" height="32" viewBox="0 0 81 32" fill="none">
  <path fill-rule="evenodd" clip-rule="evenodd" d="M20.0301 2.66379L20.5448 0.243774H13.2848L12.7701 2.66379H17.6101L16.5815 7.50381H18.9998L18.4852 9.92364H23.3252L22.2965 14.7637H24.7166L25.7452 9.92364L26.2599 7.50363H19.0015L20.0301 2.66379ZM16.5818 7.50401L16.0675 9.92384H18.4855L17.4568 14.7639H22.2969L21.7825 17.1839H16.9349L16.9349 17.1839L15.9063 22.0238H23.1608L22.6462 24.4438L21.6175 29.2838H19.1975L20.2262 24.4438H15.3862L15.9008 22.024H13.4862L14.5149 17.1839H9.67486L10.1895 14.7639H15.0368L16.0655 9.92402H11.2227L10.1941 14.7638H7.77435L7.26004 17.1837H0L1.543 9.92364H3.96271L4.47734 7.50373H9.32181L10.3504 2.66399H12.7704L11.7418 7.50401H16.5818ZM3.96299 9.92374L2.93434 14.7637H7.77406L8.80271 9.92374H3.96299ZM13.4865 22.0242L12.9723 24.444H15.3865L14.3578 29.284H19.1978L18.6835 31.704H11.4235L12.9664 24.4442H5.71218L7.25518 17.1841H9.67519L8.64652 22.0242H13.4865Z" fill="#0057FF"/>
  <path d="M80.3604 14.4258H78.301L77.6986 17.5269C77.654 17.75 77.6317 17.9284 77.6317 18.0846C77.6317 18.6201 77.8994 18.7985 78.591 18.7985H78.9703L78.3456 21.922H76.94C75.1552 21.922 74.062 21.1188 74.062 19.4455C74.062 19.1332 74.1067 18.7762 74.1736 18.397L74.9544 14.4258H73.0312L73.6265 11.6147H75.4899L76.2931 7.4873H79.6396L78.8364 11.6147H81.0005L80.3604 14.4258Z" fill="#0D0E4D"/>
  <path d="M72.7587 15.4519C72.7587 16.0766 72.6695 16.7682 72.4464 17.5714H65.0617C65.2179 18.7761 65.9095 19.4231 67.3597 19.4231C68.676 19.4231 69.7692 18.9546 70.5277 18.5084L71.5763 21.141C70.2823 21.8103 68.8321 22.2565 67.1366 22.2565C63.9239 22.2565 61.7821 20.3825 61.7821 17.3037C61.7821 14.448 63.6116 11.3022 67.8951 11.3022C70.8177 11.3022 72.7587 12.797 72.7587 15.4519ZM65.2402 15.5858H69.4345C69.4568 15.4519 69.4568 15.3404 69.4568 15.1842C69.4568 14.2472 68.7875 13.6894 67.7389 13.6894C66.5342 13.6894 65.6418 14.4257 65.2402 15.5858Z" fill="#0D0E4D"/>
  <path d="M52.0893 21.922H48.7205L50.7284 11.6147H54.0303L53.7179 13.1764H53.7626C54.6773 11.9716 55.7928 11.28 57.3099 11.28C59.2955 11.28 60.5895 12.3732 60.5895 14.6265C60.5895 15.0504 60.5448 15.8313 60.3887 16.6345L59.3178 21.922H55.9713L56.9306 16.8799C57.0198 16.4783 57.0868 16.0767 57.0868 15.6974C57.0868 14.5596 56.4844 14.0911 55.4581 14.0911C54.3426 14.0911 53.4725 14.6935 53.0933 16.746L52.0893 21.922Z" fill="#0D0E4D"/>
  <path d="M48.4453 15.4519C48.4453 16.0766 48.3561 16.7682 48.133 17.5714H40.7483C40.9045 18.7761 41.5961 19.4231 43.0462 19.4231C44.3625 19.4231 45.4557 18.9546 46.2143 18.5084L47.2629 21.141C45.9689 21.8103 44.5187 22.2565 42.8231 22.2565C39.6105 22.2565 37.4687 20.3825 37.4687 17.3037C37.4687 14.448 39.2981 11.3022 43.5817 11.3022C46.5043 11.3022 48.4453 12.797 48.4453 15.4519ZM40.9268 15.5858H45.1211C45.1434 15.4519 45.1434 15.3404 45.1434 15.1842C45.1434 14.2472 44.4741 13.6894 43.4255 13.6894C42.2208 13.6894 41.3284 14.4257 40.9268 15.5858Z" fill="#0D0E4D"/>
  <path d="M37.3241 14.4258H35.2647L34.6623 17.5269C34.6177 17.75 34.5954 17.9284 34.5954 18.0846C34.5954 18.6201 34.8631 18.7985 35.5547 18.7985H35.934L35.3093 21.922H33.9037C32.1189 21.922 31.0257 21.1188 31.0257 19.4455C31.0257 19.1332 31.0704 18.7762 31.1373 18.397L31.9181 14.4258H29.9949L30.5902 11.6147H32.4536L33.2567 7.4873H36.6033L35.8001 11.6147H37.9642L37.3241 14.4258Z" fill="#0D0E4D"/>
  <path d="M80.8213 28.8498C80.8213 29.011 80.7983 29.1894 80.7408 29.3966H78.8359C78.8762 29.7073 79.0546 29.8742 79.4286 29.8742C79.7682 29.8742 80.0502 29.7534 80.2459 29.6383L80.5163 30.3174C80.1825 30.49 79.8085 30.6051 79.3711 30.6051C78.5424 30.6051 77.9899 30.1217 77.9899 29.3275C77.9899 28.5909 78.4618 27.7794 79.5668 27.7794C80.3207 27.7794 80.8213 28.165 80.8213 28.8498ZM78.8819 28.8844H79.9639C79.9696 28.8498 79.9696 28.8211 79.9696 28.7808C79.9696 28.5391 79.797 28.3952 79.5265 28.3952C79.2157 28.3952 78.9855 28.5851 78.8819 28.8844Z" fill="#0D0E4D"/>
  <path d="M76.3046 30.605C75.8442 30.605 75.5449 30.3921 75.3953 30.0583H75.3838L75.2974 30.5187H74.4284L75.2169 26.4902H76.0859L75.7463 28.211H75.7578C75.9478 27.9635 76.2643 27.7736 76.6556 27.7736C77.1736 27.7736 77.7375 28.0556 77.7375 29.0224C77.7375 29.9087 77.1908 30.605 76.3046 30.605ZM76.1549 29.8108C76.5808 29.8108 76.8283 29.4828 76.8283 29.126C76.8283 28.7519 76.552 28.5678 76.2355 28.5678C75.8096 28.5678 75.5679 28.8958 75.5679 29.2526C75.5679 29.6267 75.8384 29.8108 76.1549 29.8108Z" fill="#0D0E4D"/>
  <path d="M72.6887 30.6051C71.9061 30.6051 71.296 30.1908 71.296 29.3218C71.296 28.4585 71.9176 27.7737 72.9017 27.7737C73.6786 27.7737 74.2886 28.188 74.2886 29.057C74.2886 29.9203 73.6671 30.6051 72.6887 30.6051ZM72.7348 29.8052C73.1894 29.8052 73.4254 29.4484 73.4254 29.1088C73.4254 28.729 73.1491 28.5736 72.8556 28.5736C72.3952 28.5736 72.1593 28.9304 72.1593 29.27C72.1593 29.6498 72.4355 29.8052 72.7348 29.8052Z" fill="#0D0E4D"/>
  <path d="M70.6432 30.5187H69.7742L70.5569 26.4902H71.4259L70.6432 30.5187Z" fill="#0D0E4D"/>
  <path d="M68.8339 28.3204L68.9202 27.86H69.7834L69.3 30.3692C69.0986 31.3936 68.6497 31.7561 67.6944 31.7561C67.28 31.7561 66.8772 31.6928 66.4801 31.5604L66.7563 30.8008C67.0729 30.9216 67.3779 30.9849 67.6714 30.9849C68.126 30.9849 68.3447 30.8238 68.4138 30.444L68.4713 30.162H68.4598C68.2469 30.444 67.9304 30.6051 67.5966 30.6051C66.906 30.6051 66.4743 30.1275 66.4743 29.3563C66.4743 28.424 67.0556 27.7737 67.8843 27.7737C68.3217 27.7737 68.6555 27.9694 68.8166 28.3204H68.8339ZM67.9821 29.8109C68.3677 29.8109 68.6497 29.5232 68.6497 29.1319C68.6497 28.7923 68.408 28.5679 68.0512 28.5679C67.6714 28.5679 67.3894 28.8556 67.3894 29.2527C67.3894 29.5865 67.6253 29.8109 67.9821 29.8109Z" fill="#0D0E4D"/>
  <path d="M66.2816 28.8498C66.2816 29.011 66.2586 29.1894 66.2011 29.3966H64.2962C64.3365 29.7073 64.5149 29.8742 64.8889 29.8742C65.2285 29.8742 65.5105 29.7534 65.7061 29.6383L65.9766 30.3174C65.6428 30.49 65.2688 30.6051 64.8314 30.6051C64.0027 30.6051 63.4502 30.1217 63.4502 29.3275C63.4502 28.5909 63.9221 27.7794 65.0271 27.7794C65.781 27.7794 66.2816 28.165 66.2816 28.8498ZM64.3422 28.8844H65.4241C65.4299 28.8498 65.4299 28.8211 65.4299 28.7808C65.4299 28.5391 65.2572 28.3952 64.9868 28.3952C64.676 28.3952 64.4458 28.5851 64.3422 28.8844Z" fill="#0D0E4D"/>
  <path d="M62.3605 28.3203L62.7115 26.4902H63.5805L62.7921 30.5187H61.9289L61.9979 30.1619H61.9864C61.7735 30.4439 61.457 30.605 61.1232 30.605C60.4326 30.605 60.001 30.1274 60.001 29.3562C60.001 28.4239 60.5822 27.7736 61.4109 27.7736C61.8483 27.7736 62.1821 27.9693 62.3432 28.3203H62.3605ZM61.5088 29.8108C61.8943 29.8108 62.1763 29.5231 62.1763 29.1318C62.1763 28.7922 61.9346 28.5678 61.5778 28.5678C61.198 28.5678 60.916 28.8555 60.916 29.2526C60.916 29.5864 61.152 29.8108 61.5088 29.8108Z" fill="#0D0E4D"/>
  <path d="M58.1442 30.6051C57.3615 30.6051 56.7515 30.1908 56.7515 29.3218C56.7515 28.4585 57.373 27.7737 58.3571 27.7737C59.134 27.7737 59.744 28.188 59.744 29.057C59.744 29.9203 59.1225 30.6051 58.1442 30.6051ZM58.1902 29.8052C58.6448 29.8052 58.8808 29.4484 58.8808 29.1088C58.8808 28.729 58.6045 28.5736 58.311 28.5736C57.8506 28.5736 57.6147 28.9304 57.6147 29.27C57.6147 29.6498 57.8909 29.8052 58.1902 29.8052Z" fill="#0D0E4D"/>
  <path d="M56.1208 26.4902H57.3639L55.2633 28.4814L56.8172 30.5187H55.6374L54.331 28.585L53.957 30.5187H53.0649L53.8476 26.4902H54.7396L54.3943 28.2685L56.1208 26.4902Z" fill="#0D0E4D"/>
  <path d="M49.8995 29.6035L50.8951 27.8597H51.5339L49.2607 31.6753H48.6679L49.5369 30.225L48.8866 27.8597H49.4909L49.8995 29.6035Z" fill="#0D0E4D"/>
  <path d="M48.0556 30.5187H47.4916L48.2743 26.4902H48.8383L48.0556 30.5187Z" fill="#0D0E4D"/>
  <path d="M46.0973 30.5188H45.5333L46.0512 27.86H46.6152L46.5001 28.424H46.5116C46.7245 27.9751 47.0353 27.7794 47.4842 27.7794H47.5648L47.4324 28.4412H47.3058C46.7591 28.4412 46.4541 28.706 46.3275 29.339L46.0973 30.5188Z" fill="#0D0E4D"/>
  <path d="M45.2237 29.2872H43.0656V29.293C43.0656 29.8052 43.3188 30.0642 43.8195 30.0642C44.1705 30.0642 44.4583 29.9375 44.7748 29.644L45.1028 30.0642C44.7 30.4325 44.2971 30.5994 43.8195 30.5994C43.0138 30.5994 42.5188 30.1217 42.5188 29.3448C42.5188 28.4297 43.1691 27.7737 44.0727 27.7737C44.8208 27.7737 45.264 28.1938 45.264 28.9017C45.264 29.0052 45.2524 29.1088 45.2237 29.2872ZM44.0439 28.2513C43.6008 28.2513 43.2727 28.4873 43.1346 28.8671H44.7115V28.8383C44.7115 28.4643 44.4698 28.2513 44.0439 28.2513Z" fill="#0D0E4D"/>
  <path d="M38.3858 30.5188H37.8218L38.3397 27.86H38.9037L38.8231 28.2744H38.8346C39.0476 27.9118 39.3468 27.7737 39.6864 27.7737C40.0777 27.7737 40.3482 27.9578 40.4288 28.3262H40.4403C40.6475 27.9578 40.9294 27.7737 41.3093 27.7737C41.7236 27.7737 42.1035 27.9924 42.1035 28.6312C42.1035 28.7693 42.0862 28.8844 42.0344 29.1376L41.7582 30.5188H41.1942L41.4819 29.057C41.5049 28.9534 41.5107 28.8614 41.5107 28.7981C41.5107 28.447 41.3323 28.3089 41.0561 28.3089C40.6705 28.3089 40.4518 28.5736 40.3424 29.1376L40.072 30.5188H39.508L39.7842 29.0973C39.8072 28.9822 39.8187 28.8844 39.8187 28.7923C39.8187 28.4413 39.6461 28.3089 39.3699 28.3089C38.99 28.3089 38.7598 28.5679 38.6505 29.1434L38.3858 30.5188Z" fill="#0D0E4D"/>
  <path d="M36.4583 30.5188H35.8943L36.4123 27.86H36.9763L36.8612 28.424H36.8727C37.0856 27.9751 37.3964 27.7794 37.8453 27.7794H37.9258L37.7935 28.4412H37.6669C37.1201 28.4412 36.8151 28.706 36.6885 29.339L36.4583 30.5188Z" fill="#0D0E4D"/>
  <path d="M34.0392 30.6051C33.2335 30.6051 32.7213 30.116 32.7213 29.3505C32.7213 28.4413 33.4004 27.7737 34.3154 27.7737C35.1211 27.7737 35.6333 28.2629 35.6333 29.0283C35.6333 29.9375 34.9542 30.6051 34.0392 30.6051ZM34.0909 30.0526C34.6434 30.0526 35.0348 29.6383 35.0348 29.0628C35.0348 28.6024 34.747 28.3262 34.2636 28.3262C33.7111 28.3262 33.3198 28.7405 33.3198 29.316C33.3198 29.7764 33.6075 30.0526 34.0909 30.0526Z" fill="#0D0E4D"/>
  <path d="M33.1026 26.4902L32.9933 27.0542H31.2725L31.0538 28.1879H32.648L32.5444 28.7519H30.9445L30.5992 30.5187H29.9949L30.7834 26.4902H33.1026Z" fill="#0D0E4D"/>
</svg>