<svg width="60" height="60" viewBox="0 0 60 60" fill="none" xmlns="http://www.w3.org/2000/svg">
<rect width="60" height="60" fill="#0D0E4D"/>
<g clip-path="url(#clip0_58_15)">
<path d="M43.1737 16.8263C43.0219 16.6752 42.8301 16.5706 42.6208 16.5247C42.4116 16.4789 42.1936 16.4937 41.9925 16.5675L17.2425 25.5675C17.0291 25.6485 16.8453 25.7925 16.7156 25.9804C16.5859 26.1682 16.5165 26.3911 16.5165 26.6194C16.5165 26.8477 16.5859 27.0706 16.7156 27.2585C16.8453 27.4464 17.0291 27.5903 17.2425 27.6713L28.0425 31.9913L32.3625 42.7913C32.4437 42.9954 32.5828 43.1712 32.7627 43.2972C32.9426 43.4231 33.1555 43.4936 33.375 43.5C33.6023 43.4954 33.8229 43.4219 34.0077 43.2894C34.1925 43.1568 34.3327 42.9714 34.41 42.7575L43.41 18.0075C43.4866 17.8085 43.5051 17.5918 43.4633 17.3826C43.4215 17.1735 43.3211 16.9805 43.1737 16.8263ZM33.375 39.225L30.2362 31.35L35.625 25.9613L34.0388 24.375L28.605 29.8088L20.775 26.625L40.4963 19.5038L33.375 39.225Z" fill="white"/>
</g>
<defs>
<clipPath id="clip0_58_15">
<rect width="36" height="36" fill="white" transform="translate(12 12)"/>
</clipPath>
</defs>
</svg>
