<svg width="88" height="42" viewBox="0 0 88 42" fill="none" xmlns="http://www.w3.org/2000/svg">
<rect x="0.194992" y="0.56366" width="86.8262" height="40.711" fill="#F5F5F5"/>
<path fill-rule="evenodd" clip-rule="evenodd" d="M26.5861 9.8524L27.0141 7.84027H20.9777L20.5498 9.8524H24.574L23.7187 13.8767H25.7309L26.5861 9.8524ZM23.2914 15.889L23.719 13.8768H19.6948L20.55 9.85257H18.5379L17.6827 13.8767H13.6568L13.2289 15.8887H11.217L9.93407 21.9251H15.9705L16.3981 19.9131H18.4099L19.2652 15.889H23.2914ZM16.3978 19.913L17.2531 15.8888H13.2291L12.3738 19.913H16.3978ZM28.4741 19.9132L28.0464 21.9253H24.0197L24.0197 21.9254L23.1645 25.9494H29.1951L28.7672 27.9616L27.9119 31.9858H25.8998L26.7551 27.9616H22.7308L23.1587 25.9496H21.1523L22.0076 21.9254H17.9833L18.4112 19.9132H22.4377L23.293 15.8889H25.3051L24.4498 19.9132H28.4741ZM31.3412 15.8887L31.7691 13.8766H25.7327L25.3048 15.8887H29.3291L28.4738 19.913H30.4859L31.3412 15.8887ZM21.1526 25.9498L20.725 27.9618H22.7311L21.8758 31.986H25.9001L25.4725 33.9981H19.4361L20.719 27.9619H14.6885L15.9715 21.9256H17.9836L17.1283 25.9498H21.1526Z" fill="#0057FF"/>
<path d="M76.7503 19.632H75.038L74.5371 22.2105C74.5 22.396 74.4815 22.5444 74.4815 22.6742C74.4815 23.1194 74.7041 23.2678 75.2791 23.2678H75.5945L75.0751 25.8648H73.9064C72.4224 25.8648 71.5135 25.197 71.5135 23.8058C71.5135 23.5461 71.5506 23.2493 71.6062 22.9339L72.2555 19.632H70.6564L71.1514 17.2948H72.7007L73.3685 13.863H76.151L75.4832 17.2948H77.2825L76.7503 19.632Z" fill="#0D0E4D"/>
<path d="M70.43 20.4853C70.43 21.0047 70.3558 21.5797 70.1703 22.2475H64.0303C64.1601 23.2492 64.7352 23.7872 65.9409 23.7872C67.0354 23.7872 67.9443 23.3976 68.575 23.0266L69.4468 25.2155C68.371 25.772 67.1652 26.143 65.7554 26.143C63.0843 26.143 61.3035 24.5848 61.3035 22.0249C61.3035 19.6506 62.8246 17.035 66.3861 17.035C68.8162 17.035 70.43 18.2779 70.43 20.4853ZM64.1787 20.5966H67.6661C67.6846 20.4853 67.6846 20.3926 67.6846 20.2627C67.6846 19.4836 67.1281 19.0199 66.2563 19.0199C65.2546 19.0199 64.5126 19.632 64.1787 20.5966Z" fill="#0D0E4D"/>
<path d="M53.2406 25.8649H50.4396L52.109 17.2948H54.8544L54.5947 18.5933H54.6318C55.3924 17.5916 56.3199 17.0166 57.5813 17.0166C59.2322 17.0166 60.3081 17.9255 60.3081 19.7991C60.3081 20.1515 60.271 20.8008 60.1411 21.4686L59.2507 25.8649H56.4683L57.2659 21.6726C57.3401 21.3387 57.3958 21.0048 57.3958 20.6895C57.3958 19.7434 56.8949 19.3539 56.0416 19.3539C55.1141 19.3539 54.3907 19.8547 54.0753 21.5613L53.2406 25.8649Z" fill="#0D0E4D"/>
<path d="M50.2131 20.4853C50.2131 21.0047 50.1389 21.5797 49.9534 22.2475H43.8134C43.9433 23.2492 44.5183 23.7872 45.7241 23.7872C46.8185 23.7872 47.7274 23.3976 48.3581 23.0266L49.23 25.2155C48.1541 25.772 46.9483 26.143 45.5386 26.143C42.8674 26.143 41.0866 24.5848 41.0866 22.0249C41.0866 19.6506 42.6077 17.035 46.1693 17.035C48.5993 17.035 50.2131 18.2779 50.2131 20.4853ZM43.9618 20.5966H47.4492C47.4677 20.4853 47.4677 20.3926 47.4677 20.2627C47.4677 19.4836 46.9112 19.0199 46.0394 19.0199C45.0377 19.0199 44.2957 19.632 43.9618 20.5966Z" fill="#0D0E4D"/>
<path d="M40.9668 19.632H39.2545L38.7537 22.2105C38.7166 22.396 38.698 22.5444 38.698 22.6742C38.698 23.1194 38.9206 23.2678 39.4956 23.2678H39.811L39.2916 25.8648H38.123C36.639 25.8648 35.73 25.197 35.73 23.8058C35.73 23.5461 35.7671 23.2493 35.8228 22.9339L36.472 19.632H34.873L35.3679 17.2948H36.9172L37.585 13.863H40.3675L39.6997 17.2948H41.499L40.9668 19.632Z" fill="#0D0E4D"/>
</svg>
